<svg xmlns="http://www.w3.org/2000/svg" viewBox="0 0 34.38 34.38"><defs><style>.cls-1{fill:#fff;}</style></defs><g id="レイヤー_2" data-name="レイヤー 2"><g id="レイヤー_1-2" data-name="レイヤー 1"><circle class="cls-1" cx="17.19" cy="17.19" r="17.19"/><path d="M17.19,0A17.18,17.18,0,1,0,34.37,17.18,17.18,17.18,0,0,0,17.19,0Zm3.94,27.85c-2.63,0-5.27,0-7.9,0a6.84,6.84,0,0,1-6.75-6.56l0-8.46a6.34,6.34,0,0,1,.4-2A7.53,7.53,0,0,1,10.34,7a4.45,4.45,0,0,1,2.21-.52c1.72,0,3.43,0,5.15,0a5.42,5.42,0,0,1,3.81,1.44,7,7,0,0,1,2.41,3.9A7.74,7.74,0,0,1,24,12.9c0,1.11.52,1.58,1.63,1.63a9.55,9.55,0,0,1,1.2.09c.8.12,1.07.46,1.08,1.26,0,1.67,0,3.34,0,5A6.79,6.79,0,0,1,21.13,27.85Z"/><path d="M20.82,19.72h-7.7a1.18,1.18,0,0,0-1.28,1.33,1.18,1.18,0,0,0,1.28,1.32h7.71a1.19,1.19,0,0,0,1.3-1.31A1.19,1.19,0,0,0,20.82,19.72Z"/><path d="M13.09,14.54h4.44a1.17,1.17,0,0,0,1.24-1.25c0-.89-.4-1.4-1.19-1.41-1.51,0-3,0-4.51,0-.81,0-1.24.51-1.24,1.38A1.2,1.2,0,0,0,13.09,14.54Z"/><path d="M15.31,14.54h0Z"/></g></g></svg>