<svg xmlns="http://www.w3.org/2000/svg" viewBox="0 0 62.26 62.26"><defs><style>.cls-1{fill:#fff;}</style></defs><g id="レイヤー_2" data-name="レイヤー 2"><g id="レイヤー_1-2" data-name="レイヤー 1"><path class="cls-1" d="M62.26,31.13A31.13,31.13,0,1,1,31.13,0,31.13,31.13,0,0,1,62.26,31.13"/><path d="M31.13,0A31.11,31.11,0,1,0,62.24,31.11,31.11,31.11,0,0,0,31.13,0m7.14,50.43c-4.78,0-9.55.07-14.32,0A12.39,12.39,0,0,1,11.74,38.54l-.07-15.33a11.13,11.13,0,0,1,.72-3.57,13.56,13.56,0,0,1,6.33-7,8.05,8.05,0,0,1,4-.94c3.11,0,6.23,0,9.34,0A9.93,9.93,0,0,1,39,14.34a12.59,12.59,0,0,1,4.35,7.06,14.28,14.28,0,0,1,.18,2c.07,2,.92,2.87,2.95,2.95a19.8,19.8,0,0,1,2.17.16c1.44.22,1.94.84,1.94,2.3,0,3,0,6,0,9.06a12.31,12.31,0,0,1-12.29,12.6"/><path d="M37.71,35.71h-14a2.14,2.14,0,0,0-2.31,2.41,2.15,2.15,0,0,0,2.33,2.39q7,0,14,0a2.16,2.16,0,0,0,2.36-2.37,2.17,2.17,0,0,0-2.37-2.43"/><path d="M23.71,26.33c1.34,0,2.68,0,4,0s2.68,0,4,0A2.12,2.12,0,0,0,34,24.06c0-1.6-.72-2.53-2.16-2.54-2.72,0-5.45,0-8.17,0-1.46,0-2.24.93-2.23,2.5a2.15,2.15,0,0,0,2.28,2.32"/><path d="M27.73,26.33c-1.34,0-2.68,0-4,0,1.34,0,2.68,0,4,0s2.68,0,4,0c-1.34,0-2.68,0-4,0"/></g></g></svg>