<svg xmlns="http://www.w3.org/2000/svg" viewBox="0 0 62.26 62.26"><defs><style>.cls-1{fill:#fff;}</style></defs><g id="レイヤー_2" data-name="レイヤー 2"><g id="レイヤー_1-2" data-name="レイヤー 1"><path class="cls-1" d="M62.26,31.13A31.13,31.13,0,1,1,31.13,0,31.13,31.13,0,0,1,62.26,31.13"/><path d="M31.39,62.25H30.27l-.43-.06C28.45,62,27,62,25.65,61.73a28.45,28.45,0,0,1-7.58-2.38,30.76,30.76,0,0,1-8-5.33,31.29,31.29,0,0,1-5.22-6.25,30.94,30.94,0,0,1-3.36-7.21A30.17,30.17,0,0,1,.17,33.69C.13,33.14.08,32.58,0,32V30.41L.1,30c.11-1.2.17-2.4.33-3.59a29.43,29.43,0,0,1,2.46-8.24A30.91,30.91,0,0,1,14.48,4.93,30.62,30.62,0,0,1,29.17.15a30.27,30.27,0,0,1,7.89.5A30.81,30.81,0,0,1,48,5,31.26,31.26,0,0,1,59.44,18.28a30.68,30.68,0,0,1,2.68,10.34,31.79,31.79,0,0,1-.49,8.6,30.43,30.43,0,0,1-2.57,7.62,31,31,0,0,1-7.51,9.76,30.64,30.64,0,0,1-8.29,5.18c-.93.38-1.87.71-2.82,1.07V40.57h7.43c.37-2.91.75-5.79,1.12-8.73H40.41V26.17A11.11,11.11,0,0,1,40.49,25a2.84,2.84,0,0,1,2.12-2.59,8.06,8.06,0,0,1,1.9-.26c1.47,0,2.94,0,4.41,0,.32,0,.38-.09.38-.38q0-3.42,0-6.84c0-.59,0-.59-.61-.66l-.46,0c-1.58-.08-3.16-.17-4.75-.23a14,14,0,0,0-5.73.85,9.35,9.35,0,0,0-4.87,4.23,12.56,12.56,0,0,0-1.5,6c0,2.12,0,4.25,0,6.37v.36h-7.1c-.4,0-.4,0-.4.42v7.93c0,.12,0,.24,0,.39h7.47v21.3c0,.13,0,.25,0,.37"/></g></g></svg>