<svg xmlns="http://www.w3.org/2000/svg" viewBox="0 0 34.38 34.38"><defs><style>.cls-1{fill:#fff;}</style></defs><g id="レイヤー_2" data-name="レイヤー 2"><g id="レイヤー_1-2" data-name="レイヤー 1"><circle class="cls-1" cx="17.19" cy="17.19" r="17.19"/><path d="M17.33,34.38h-.62l-.23,0c-.77-.08-1.55-.13-2.31-.25A15.82,15.82,0,0,1,10,32.78a17.21,17.21,0,0,1-7.29-6.4,16.76,16.76,0,0,1-1.85-4A15.9,15.9,0,0,1,.1,18.61c0-.31,0-.62-.08-.92v-.9a1.52,1.52,0,0,0,0-.21c.06-.66.1-1.33.19-2A15.72,15.72,0,0,1,1.6,10.05,17,17,0,0,1,8,2.72,17.14,17.14,0,0,1,20.46.36,17.17,17.17,0,0,1,34,20.55a17.08,17.08,0,0,1-5.57,9.6A16.58,16.58,0,0,1,23.89,33c-.51.21-1,.4-1.56.6V22.4h4.1l.62-4.82H22.32v-.19c0-1,0-2,0-2.94a4.44,4.44,0,0,1,0-.63,1.56,1.56,0,0,1,1.17-1.43,4.67,4.67,0,0,1,1-.15c.81,0,1.62,0,2.44,0,.17,0,.21-.05.2-.21V8.25c0-.33,0-.33-.33-.36a2.3,2.3,0,0,0-.26,0c-.87-.05-1.74-.1-2.62-.13a7.79,7.79,0,0,0-3.17.47,5.22,5.22,0,0,0-2.69,2.34,7,7,0,0,0-.82,3.32c0,1.18,0,2.35,0,3.52v.2H13.41c-.22,0-.22,0-.22.23q0,2.19,0,4.38c0,.07,0,.13,0,.22h4.13v12Z"/></g></g></svg>