<svg id="レイヤー_1" data-name="レイヤー 1" xmlns="http://www.w3.org/2000/svg" viewBox="0 0 24 24"><defs><style>.cls-1{fill:#4d4d4d;}</style></defs><path class="cls-1" d="M12,0A12,12,0,1,1,0,12,12,12,0,0,1,12,0ZM4.71,12h0c0,.51,0,1,0,1.52A13.5,13.5,0,0,0,4.89,16a3.72,3.72,0,0,0,2.72,3,7.06,7.06,0,0,0,1.94.23h4.76a9.75,9.75,0,0,0,1.62-.14A3.69,3.69,0,0,0,19,16.35a7.06,7.06,0,0,0,.23-1.94c0-1.61,0-3.22,0-4.82a7.91,7.91,0,0,0-.16-1.68A3.69,3.69,0,0,0,16.6,5.06a5.81,5.81,0,0,0-2-.3c-1.51,0-3,0-4.52,0a16.13,16.13,0,0,0-2,.13A3.69,3.69,0,0,0,5.6,6.35a4.26,4.26,0,0,0-.81,2.43C4.74,9.85,4.73,10.92,4.71,12Z"/><path class="cls-1" d="M6,12c0-1,0-2.07.07-3.1a3.52,3.52,0,0,1,.21-1.11,2.44,2.44,0,0,1,2-1.62,11.09,11.09,0,0,1,2-.13l4.41,0A5.14,5.14,0,0,1,16,6.22a2.42,2.42,0,0,1,1.78,1.84,6.1,6.1,0,0,1,.16,1.48c0,1.63,0,3.26,0,4.9a6.52,6.52,0,0,1-.15,1.46,2.4,2.4,0,0,1-2,1.89,7.84,7.84,0,0,1-1.36.14c-1.65,0-3.29,0-4.94,0A5.85,5.85,0,0,1,8,17.76a2.44,2.44,0,0,1-1.86-2A11.43,11.43,0,0,1,6,13.79c0-.6,0-1.2,0-1.8Zm6,3.73a3.73,3.73,0,1,0-3.73-3.67A3.74,3.74,0,0,0,12,15.72ZM15.85,9A.87.87,0,1,0,15,8.12.87.87,0,0,0,15.85,9Z"/><path class="cls-1" d="M14.42,12A2.43,2.43,0,1,1,12,9.56,2.43,2.43,0,0,1,14.42,12Z"/></svg>