<svg id="レイヤー_1" data-name="レイヤー 1" xmlns="http://www.w3.org/2000/svg" viewBox="0 0 24 24.01"><defs><style>.cls-1{fill:#4d4d4d;}</style></defs><path class="cls-1" d="M12,24A12,12,0,1,1,24,11.89,12,12,0,0,1,12,24Zm2.69-6.21a6.74,6.74,0,0,1-1,.21c-.83.06-1.34-.14-1.17-1.15.12-.71.31-1.42.48-2.12a13.76,13.76,0,0,0,.69-3.1,1.89,1.89,0,0,0-.43-1.31,2.33,2.33,0,0,0-2-.73,7.8,7.8,0,0,0-2.59.71.29.29,0,0,0-.13.14c-.06.24-.11.47-.18.74l.16,0A2.63,2.63,0,0,1,9.9,11c.47.09.63.24.66.73a2.88,2.88,0,0,1,0,.72c-.23.9-.49,1.8-.71,2.7a19.23,19.23,0,0,0-.43,2.24,1.65,1.65,0,0,0,.8,1.6,2.84,2.84,0,0,0,2.25.34,13.72,13.72,0,0,0,2-.64.19.19,0,0,0,.12-.11C14.59,18.29,14.64,18.05,14.69,17.8ZM13.05,8.05a1.76,1.76,0,0,0,1.84-1.69,1.74,1.74,0,0,0-1.77-1.74,1.79,1.79,0,0,0-1.9,1.69A1.79,1.79,0,0,0,13.05,8.05Z"/></svg>