<svg xmlns="http://www.w3.org/2000/svg" viewBox="0 0 62.26 62.26"><defs><style>.cls-1{fill:#fff;}</style></defs><g id="レイヤー_2" data-name="レイヤー 2"><g id="レイヤー_1-2" data-name="レイヤー 1"><path class="cls-1" d="M62.26,31.13A31.13,31.13,0,1,1,31.13,0,31.13,31.13,0,0,1,62.26,31.13"/><path d="M31.13,62.26A31.13,31.13,0,1,1,62.25,30.85,31.18,31.18,0,0,1,31.13,62.26Zm7-16.1a18.54,18.54,0,0,1-2.63.56c-2.14.14-3.47-.38-3-3,.32-1.85.79-3.68,1.25-5.51.67-2.66,1.73-5.23,1.77-8a4.92,4.92,0,0,0-1.1-3.4c-1.36-1.6-3.2-1.92-5.12-1.9-2.39,0-4.53,1-6.71,1.84a.62.62,0,0,0-.33.38c-.17.6-.31,1.22-.47,1.9l.4-.1a6.54,6.54,0,0,1,3.52-.5c1.24.22,1.64.62,1.72,1.89a6.36,6.36,0,0,1-.11,1.85c-.58,2.35-1.27,4.67-1.83,7A47.83,47.83,0,0,0,24.34,45a4.26,4.26,0,0,0,2.06,4.15,7.51,7.51,0,0,0,5.85.89,40.6,40.6,0,0,0,5.11-1.66.51.51,0,0,0,.31-.3C37.83,47.43,38,46.81,38.11,46.16ZM33.85,20.87a4.59,4.59,0,0,0,4.79-4.37A4.56,4.56,0,0,0,34,12a4.66,4.66,0,0,0-4.92,4.39A4.63,4.63,0,0,0,33.85,20.87Z"/></g></g></svg>