<svg xmlns="http://www.w3.org/2000/svg" viewBox="0 0 62.26 62.26"><defs><style>.cls-1{fill:#fff;}</style></defs><g id="レイヤー_2" data-name="レイヤー 2"><g id="レイヤー_1-2" data-name="レイヤー 1"><path class="cls-1" d="M62.26,31.13A31.13,31.13,0,1,1,31.13,0,31.13,31.13,0,0,1,62.26,31.13"/><path d="M31.13,0A31.09,31.09,0,1,1,0,31.06,31.09,31.09,0,0,1,31.13,0M12.24,31.07h.06c0,1.31,0,2.62,0,3.93a34.79,34.79,0,0,0,.4,6.37,9.65,9.65,0,0,0,7.05,7.84,17.49,17.49,0,0,0,5,.6c4.1,0,8.21,0,12.32,0a23.58,23.58,0,0,0,4.2-.35,9.56,9.56,0,0,0,7.95-7.09,17.56,17.56,0,0,0,.59-5q0-6.24,0-12.49a19.7,19.7,0,0,0-.4-4.34,9.67,9.67,0,0,0-6.4-7.4,15.49,15.49,0,0,0-5.14-.77c-3.9,0-7.8-.08-11.7-.05a39.17,39.17,0,0,0-5.08.34,9.6,9.6,0,0,0-6.59,3.83,11,11,0,0,0-2.09,6.3c-.13,2.77-.15,5.55-.21,8.32"/><path d="M15.6,31.07c.06-2.68.12-5.36.2-8a9.27,9.27,0,0,1,.53-2.85A6.31,6.31,0,0,1,21.4,16a26.76,26.76,0,0,1,5.14-.34c3.81,0,7.61,0,11.42.07a13,13,0,0,1,3.51.42,6.33,6.33,0,0,1,4.62,4.76,15.4,15.4,0,0,1,.39,3.82q0,6.36,0,12.7a16.15,16.15,0,0,1-.38,3.79A6.23,6.23,0,0,1,41,46.09a18.11,18.11,0,0,1-3.52.35c-4.27,0-8.53,0-12.8,0A14.13,14.13,0,0,1,20.82,46,6.35,6.35,0,0,1,16,40.76a29.37,29.37,0,0,1-.33-5c0-1.55,0-3.1,0-4.65Zm15.5,9.65a9.66,9.66,0,1,0-9.65-9.51,9.68,9.68,0,0,0,9.65,9.51m10-17.44A2.25,2.25,0,1,0,38.87,21a2.25,2.25,0,0,0,2.24,2.26"/><path d="M37.39,31.05a6.29,6.29,0,1,1-6.29-6.28,6.3,6.3,0,0,1,6.29,6.28"/></g></g></svg>