<svg xmlns="http://www.w3.org/2000/svg" viewBox="0 0 34.38 34.38"><defs><style>.cls-1{fill:#fff;}</style></defs><g id="レイヤー_2" data-name="レイヤー 2"><g id="レイヤー_1-2" data-name="レイヤー 1"><circle class="cls-1" cx="17.19" cy="17.19" r="17.19"/><path d="M17.19,0A17.17,17.17,0,1,1,0,17.15,17.17,17.17,0,0,1,17.19,0ZM6.76,17.16h0c0,.72,0,1.44,0,2.17A20.74,20.74,0,0,0,7,22.85a5.34,5.34,0,0,0,3.9,4.33,10,10,0,0,0,2.78.33c2.27,0,4.53,0,6.8,0a12.83,12.83,0,0,0,2.32-.2A5.27,5.27,0,0,0,27.2,23.4a9.74,9.74,0,0,0,.33-2.79q0-3.45,0-6.89a11.35,11.35,0,0,0-.22-2.4,5.32,5.32,0,0,0-3.54-4.08,8.27,8.27,0,0,0-2.84-.43c-2.15,0-4.3,0-6.46,0a22,22,0,0,0-2.8.19A5.28,5.28,0,0,0,8,9.08a6.08,6.08,0,0,0-1.16,3.48C6.8,14.09,6.79,15.63,6.76,17.16Z"/><path d="M8.61,17.16c0-1.48.07-3,.11-4.45A4.91,4.91,0,0,1,9,11.14a3.49,3.49,0,0,1,2.8-2.32,14.91,14.91,0,0,1,2.83-.19c2.11,0,4.21,0,6.31,0a7.06,7.06,0,0,1,1.94.23,3.49,3.49,0,0,1,2.55,2.63,8.8,8.8,0,0,1,.22,2.11q0,3.51,0,7a8.63,8.63,0,0,1-.22,2.09,3.42,3.42,0,0,1-2.8,2.71,9.67,9.67,0,0,1-1.94.19c-2.36,0-4.71,0-7.07,0a8.25,8.25,0,0,1-2.15-.24,3.49,3.49,0,0,1-2.65-2.9,16.29,16.29,0,0,1-.19-2.79c0-.85,0-1.71,0-2.56Zm8.56,5.33a5.34,5.34,0,1,0-5.33-5.26A5.35,5.35,0,0,0,17.17,22.49Zm5.53-9.63a1.24,1.24,0,1,0,0-2.48,1.24,1.24,0,0,0-1.26,1.23A1.26,1.26,0,0,0,22.7,12.86Z"/><path d="M20.65,17.14a3.48,3.48,0,1,1-3.48-3.46A3.48,3.48,0,0,1,20.65,17.14Z"/></g></g></svg>