<svg xmlns="http://www.w3.org/2000/svg" viewBox="0 0 62.26 62.26"><defs><style>.cls-1{fill:#fff;}</style></defs><g id="レイヤー_2" data-name="レイヤー 2"><g id="レイヤー_1-2" data-name="レイヤー 1"><path class="cls-1" d="M62.26,31.13A31.13,31.13,0,1,1,31.13,0,31.13,31.13,0,0,1,62.26,31.13"/><path d="M31.13,0A31.09,31.09,0,1,0,62.22,31.09,31.09,31.09,0,0,0,31.13,0M49.69,41c-4.95,6-16,13.28-18.56,14.4S29,54.65,29.08,54l.34-2.12a5.29,5.29,0,0,0-.08-2.24c-.26-.69-1.31-1-2.08-1.23C15.91,46.86,7.5,38.53,7.5,28.58c0-11.1,10.6-20.12,23.63-20.12s23.63,9,23.63,20.12C54.76,33,53.12,37,49.69,41Z"/><path d="M26.33,23.22H24.67a.47.47,0,0,0-.46.48V34.5a.48.48,0,0,0,.46.49h1.66a.48.48,0,0,0,.46-.49V23.7a.47.47,0,0,0-.46-.48"/><path d="M37.74,23.22H36.08a.46.46,0,0,0-.46.48v6.42L30.9,23.43l0-.05h0l0,0h0l0,0h0l0,0h-1.9a.47.47,0,0,0-.46.48V34.5a.48.48,0,0,0,.46.49h1.66A.48.48,0,0,0,31,34.5V28.09l4.72,6.69a.34.34,0,0,0,.12.12H36l.12,0h1.66a.48.48,0,0,0,.46-.49V23.7a.47.47,0,0,0-.46-.48"/><path d="M22.33,32.28h-4.5V23.7a.47.47,0,0,0-.46-.48H15.71a.47.47,0,0,0-.46.48V34.5h0a.51.51,0,0,0,.13.34h0a.45.45,0,0,0,.32.14h6.62a.47.47,0,0,0,.46-.49V32.76a.47.47,0,0,0-.46-.48"/><path d="M46.89,23.22H40.27a.44.44,0,0,0-.32.13h0a.51.51,0,0,0-.12.33h0V34.5h0a.51.51,0,0,0,.13.34h0a.45.45,0,0,0,.32.14h6.62a.48.48,0,0,0,.46-.49V32.76a.48.48,0,0,0-.46-.48H42.38V30.45h4.51a.47.47,0,0,0,.46-.48V28.23a.48.48,0,0,0-.46-.48H42.38V25.92h4.51a.47.47,0,0,0,.46-.48V23.7a.47.47,0,0,0-.46-.48"/></g></g></svg>