<svg xmlns="http://www.w3.org/2000/svg" viewBox="0 0 34.38 34.38"><defs><style>.cls-1{fill:#fff;}</style></defs><g id="レイヤー_2" data-name="レイヤー 2"><g id="レイヤー_1-2" data-name="レイヤー 1"><circle class="cls-1" cx="17.19" cy="17.19" r="17.19"/><path d="M17.19,0A17.17,17.17,0,1,0,34.36,17.17,17.17,17.17,0,0,0,17.19,0ZM27.44,22.62c-2.74,3.31-8.86,7.33-10.25,8s-1.19-.39-1.13-.74.19-1.17.19-1.17a3.05,3.05,0,0,0-.05-1.24c-.14-.38-.72-.58-1.15-.67-6.27-.87-10.91-5.48-10.91-11C4.14,9.65,10,4.67,17.19,4.67s13,5,13,11.11a10.16,10.16,0,0,1-2.8,6.84Z"/><path d="M14.54,12.82h-.92a.26.26,0,0,0-.25.27v6a.26.26,0,0,0,.25.27h.92a.26.26,0,0,0,.25-.27v-6A.26.26,0,0,0,14.54,12.82Z"/><path d="M20.84,12.82h-.92a.26.26,0,0,0-.25.27v3.54l-2.61-3.69,0,0h0v0H15.94a.27.27,0,0,0-.26.27v6a.27.27,0,0,0,.26.27h.91a.27.27,0,0,0,.26-.27V15.51l2.6,3.7s0,.05.07.06h1.06a.26.26,0,0,0,.25-.27v-6A.26.26,0,0,0,20.84,12.82Z"/><path d="M12.33,17.83H9.85V13.09a.27.27,0,0,0-.26-.27H8.68a.27.27,0,0,0-.26.27v6h0a.29.29,0,0,0,.07.19h0a.29.29,0,0,0,.18.07h3.65a.27.27,0,0,0,.26-.27v-1A.26.26,0,0,0,12.33,17.83Z"/><path d="M25.89,12.82H22.24a.23.23,0,0,0-.18.08h0a.32.32,0,0,0-.07.19h0v6h0a.29.29,0,0,0,.07.19h0a.29.29,0,0,0,.18.07h3.65a.27.27,0,0,0,.26-.27v-1a.26.26,0,0,0-.26-.26H23.41v-1h2.48a.27.27,0,0,0,.26-.27v-1a.27.27,0,0,0-.26-.27H23.41v-1h2.48a.26.26,0,0,0,.26-.26v-1A.27.27,0,0,0,25.89,12.82Z"/></g></g></svg>