<svg xmlns="http://www.w3.org/2000/svg" viewBox="0 0 62.54 62.26"><defs><style>.cls-1{opacity:0.8;}.cls-2{fill:#fff;}</style></defs><g id="レイヤー_2" data-name="レイヤー 2"><g id="レイヤー_1-2" data-name="レイヤー 1"><g class="cls-1"><path class="cls-2" d="M62.26,31.13A31.13,31.13,0,1,1,31.13,0,31.13,31.13,0,0,1,62.26,31.13"/><path d="M31.94,62.25A31.09,31.09,0,1,1,62.53,31.91,31.06,31.06,0,0,1,31.94,62.25M13.64,26.38A6.13,6.13,0,0,0,14,29.2a8.35,8.35,0,0,0,5.33,5.21h-3c1.19,3.51,3.81,5.05,7.13,5.71a3.2,3.2,0,0,1-1.56,1.21,17.4,17.4,0,0,1-9.32,1.88,1.93,1.93,0,0,0-.41,0l0,.14c.47.29.92.6,1.41.85A23.72,23.72,0,0,0,32.9,45.54a19.42,19.42,0,0,0,12.24-12,28,28,0,0,0,1.64-9.72.81.81,0,0,1,.39-.73,14,14,0,0,0,3.11-3.23,2.24,2.24,0,0,0,.24-.67L47,20.24a.36.36,0,0,1,0-.11,8.1,8.1,0,0,0,2.75-4.08,1.22,1.22,0,0,0-.48.13,18.57,18.57,0,0,1-4.13,1.56.72.72,0,0,1-.58-.12,7.73,7.73,0,0,0-6.55-2.16,8.09,8.09,0,0,0-7,9.16c0,.13,0,.27,0,.47-.74-.13-1.41-.24-2.08-.38a25.58,25.58,0,0,1-9.22-3.64,22.72,22.72,0,0,1-4.47-3.89c-.38-.42-.46-.42-.74.08a7,7,0,0,0-.44.91,8.24,8.24,0,0,0,2.24,8.63l.61.55a9.42,9.42,0,0,1-3.24-1"/></g></g></g></svg>