<svg xmlns="http://www.w3.org/2000/svg" viewBox="0 0 34.53 34.38"><defs><style>.cls-1{fill:#fff;}</style></defs><g id="レイヤー_2" data-name="レイヤー 2"><g id="レイヤー_1-2" data-name="レイヤー 1"><circle class="cls-1" cx="17.19" cy="17.19" r="17.19"/><path d="M17.64,34.38A17.17,17.17,0,1,1,34.53,17.62,17.17,17.17,0,0,1,17.64,34.38ZM7.53,14.57a3.37,3.37,0,0,0,.22,1.56A4.65,4.65,0,0,0,10.7,19H9A4.7,4.7,0,0,0,13,22.16a1.77,1.77,0,0,1-.85.66,9.68,9.68,0,0,1-5.15,1,.9.9,0,0,0-.23,0l0,.08c.26.15.51.33.78.46a13.11,13.11,0,0,0,10.68.73,10.75,10.75,0,0,0,6.76-6.64,15.32,15.32,0,0,0,.9-5.36.46.46,0,0,1,.22-.41A7.7,7.7,0,0,0,27.77,11a1.4,1.4,0,0,0,.13-.36l-2,.59,0-.06a4.52,4.52,0,0,0,1.52-2.26.77.77,0,0,0-.27.07,10.13,10.13,0,0,1-2.28.87.4.4,0,0,1-.32-.07,4.25,4.25,0,0,0-3.62-1.19,4.47,4.47,0,0,0-3.85,5.05c0,.08,0,.15,0,.26L16,13.65a14.15,14.15,0,0,1-5.09-2A12.3,12.3,0,0,1,8.4,9.49c-.21-.24-.26-.24-.41,0a3.27,3.27,0,0,0-.24.5A4.55,4.55,0,0,0,9,14.8l.34.3A5.14,5.14,0,0,1,7.53,14.57Z"/></g></g></svg>